<svg width="24" height="24" viewBox="0 0 24 24" fill="none" xmlns="http://www.w3.org/2000/svg">
<g id="Path 4108 1">
<path id="Path 4108" d="M17.052 13.3574L17.598 9.44949H14.1804V6.91443C14.1572 6.62295 14.194 6.32948 14.2881 6.0557C14.3822 5.78192 14.5311 5.53483 14.724 5.33267C14.9168 5.1305 15.1486 4.97844 15.4022 4.8877C15.6558 4.79697 15.9248 4.76989 16.1892 4.80846H17.7432V1.47709C16.8303 1.31554 15.9078 1.22755 14.9832 1.21383C14.3469 1.16059 13.7077 1.26159 13.111 1.50967C12.5143 1.75775 11.9747 2.14684 11.5305 2.64931C11.0862 3.15179 10.7482 3.75534 10.5405 4.41715C10.3327 5.07896 10.2604 5.78281 10.3284 6.47875V9.45607H7.19995V13.364H10.3284V22.8H14.1792V13.3547L17.052 13.3574Z" fill="#48407E"/>
</g>
</svg>
