<svg width="24" height="24" viewBox="0 0 24 24" fill="none" xmlns="http://www.w3.org/2000/svg">
<g id="Group 5086 1">
<g id="Group 5086">
<g id="Group 5086_2">
<path id="Path 4109" d="M17.7183 5.0528C17.468 5.0528 17.2234 5.12697 17.0153 5.26596C16.8072 5.40496 16.645 5.60252 16.5492 5.83368C16.4534 6.06484 16.4283 6.31923 16.477 6.56467C16.5257 6.81011 16.6461 7.03559 16.823 7.21262C16.9998 7.38965 17.2252 7.51029 17.4705 7.55927C17.7159 7.60824 17.9704 7.58337 18.2016 7.4878C18.4329 7.39222 18.6306 7.23023 18.7699 7.0223C18.9091 6.81436 18.9835 6.56983 18.9837 6.31959C18.9839 6.1533 18.9513 5.98859 18.8878 5.8349C18.8242 5.68122 18.7311 5.54157 18.6135 5.42392C18.496 5.30627 18.3564 5.21292 18.2028 5.14924C18.0492 5.08556 17.8845 5.0528 17.7183 5.0528Z" fill="#48407E"/>
<path id="Path 4110" d="M12.0876 6.67694C11.0353 6.67694 10.0067 6.98898 9.13175 7.5736C8.25686 8.15823 7.57504 8.98918 7.17242 9.96136C6.7698 10.9335 6.66452 12.0033 6.8699 13.0353C7.07528 14.0673 7.58211 15.0152 8.32626 15.7592C9.0704 16.5032 10.0184 17.0097 11.0505 17.2149C12.0826 17.42 13.1523 17.3145 14.1244 16.9116C15.0964 16.5087 15.9272 15.8266 16.5116 14.9516C17.096 14.0766 17.4078 13.0479 17.4075 11.9956C17.4058 10.5853 16.8448 9.2333 15.8474 8.2362C14.85 7.23909 13.4978 6.67833 12.0876 6.67694ZM12.0876 15.4036C11.4135 15.4038 10.7544 15.2042 10.1938 14.8299C9.63319 14.4556 9.1962 13.9234 8.93805 13.3007C8.67991 12.678 8.61228 11.9927 8.74363 11.3316C8.87498 10.6704 9.1994 10.063 9.67596 9.58628C10.1525 9.10954 10.7598 8.78484 11.4209 8.65323C12.0821 8.52163 12.7673 8.58905 13.3901 8.84695C14.0129 9.10485 14.5452 9.54165 14.9197 10.1021C15.2943 10.6626 15.4942 11.3215 15.4942 11.9956C15.4942 12.8995 15.1354 13.7664 14.4967 14.4059C13.8579 15.0454 12.9914 15.4052 12.0876 15.4062V15.4036Z" fill="#48407E"/>
<path id="Path 4111" d="M16.3119 22.8H7.68798C5.96778 22.7982 4.3185 22.1141 3.10214 20.8978C1.88578 19.6814 1.20169 18.0322 1.19995 16.312V7.68802C1.20169 5.96782 1.88578 4.31858 3.10214 3.10222C4.3185 1.88586 5.96778 1.20176 7.68798 1.20001H16.3119C18.0321 1.20176 19.6813 1.88586 20.8977 3.10222C22.114 4.31858 22.7982 5.96782 22.8 7.68802V16.312C22.7982 18.0322 22.114 19.6814 20.8977 20.8978C19.6813 22.1141 18.0321 22.7982 16.3119 22.8ZM7.68798 3.23188C6.50646 3.23293 5.37363 3.70274 4.53816 4.5382C3.7027 5.37367 3.23283 6.5065 3.23178 7.68802V16.312C3.23317 17.4934 3.70318 18.626 4.53856 19.4614C5.37395 20.2968 6.50656 20.7667 7.68798 20.7681H16.3119C17.4933 20.7667 18.6259 20.2968 19.4613 19.4614C20.2967 18.626 20.7666 17.4934 20.768 16.312V7.68802C20.7666 6.5066 20.2967 5.37397 19.4613 4.53859C18.6259 3.7032 17.4933 3.23328 16.3119 3.23188H7.68798Z" fill="#48407E"/>
</g>
</g>
</g>
</svg>
