<?xml version="1.0" standalone="no"?>
<!DOCTYPE svg PUBLIC "-//W3C//DTD SVG 20010904//EN"
 "http://www.w3.org/TR/2001/REC-SVG-20010904/DTD/svg10.dtd">
<svg version="1.0" xmlns="http://www.w3.org/2000/svg"
 width="2048.000000pt" height="2048.000000pt" viewBox="0 0 2048.000000 2048.000000"
 preserveAspectRatio="xMidYMid meet">

<g transform="translate(0.000000,2048.000000) scale(0.100000,-0.100000)"
fill="#000000" stroke="none">
<path d="M10426 13175 c-20 -20 -36 -42 -36 -49 0 -13 -27 -31 -41 -28 -20 4
-49 -174 -53 -320 -1 -14 -4 -24 -7 -22 -4 2 -10 -3 -13 -12 -9 -23 -8 -26 7
-18 7 4 9 3 4 -2 -5 -5 -12 -9 -16 -9 -10 0 -71 -52 -66 -56 2 -2 -16 -5 -38
-7 -97 -6 -101 -7 -119 -43 -39 -76 -80 -175 -82 -196 0 -11 -4 -19 -7 -17 -7
4 -105 -226 -102 -238 2 -4 -1 -8 -5 -8 -5 0 -17 -24 -27 -54 -22 -63 -12 -86
35 -86 44 0 90 12 84 21 -3 5 2 6 10 3 8 -3 33 4 56 16 52 27 127 35 160 18
36 -18 66 -87 105 -235 18 -70 44 -161 57 -202 l24 -73 26 48 c43 80 78 176
73 198 -3 12 -2 15 1 7 4 -8 26 27 55 85 27 55 59 110 70 124 l21 25 20 -25
c12 -14 24 -24 28 -23 4 1 7 -5 6 -15 0 -9 4 -16 11 -15 8 2 10 -4 6 -14 -5
-12 -3 -14 7 -8 8 5 11 3 8 -6 -4 -11 31 -67 130 -204 33 -46 256 -379 294
-440 39 -61 85 -105 111 -105 29 0 55 28 96 102 39 69 74 105 110 113 33 7
107 -19 115 -41 4 -11 13 -13 28 -9 18 5 20 4 8 -4 -12 -9 -7 -19 35 -61 31
-32 55 -48 65 -45 8 3 11 3 7 -1 -11 -11 36 -46 55 -41 10 3 16 2 13 -3 -7
-11 76 -30 132 -30 49 0 154 21 208 42 36 13 98 40 104 45 9 6 -32 42 -42 36
-5 -3 -7 -2 -4 4 4 6 -12 30 -34 54 -52 56 -119 145 -119 159 0 5 -4 10 -9 10
-9 0 -92 154 -89 165 0 3 -5 31 -11 63 -6 31 -13 69 -15 84 -5 30 -36 88 -47
88 -4 0 -13 16 -19 35 -15 46 1 72 64 104 25 13 46 27 46 31 0 3 22 29 49 57
28 29 45 53 40 55 -5 2 16 3 48 3 53 -1 103 -19 103 -37 0 -5 6 -8 13 -8 23 0
189 -121 243 -177 28 -29 65 -80 83 -113 18 -33 36 -60 41 -60 10 0 11 -1 110
-83 93 -76 124 -89 228 -88 77 1 91 -2 125 -25 22 -14 46 -42 56 -64 9 -21 34
-57 55 -80 30 -34 40 -40 48 -29 7 10 8 9 4 -6 -4 -14 8 -34 40 -70 25 -27
107 -118 182 -202 75 -83 140 -150 144 -147 5 3 7 0 6 -8 -2 -7 4 -12 12 -10
8 2 12 0 8 -3 -9 -10 9 -45 23 -45 6 0 7 5 3 12 -4 7 -3 8 4 4 6 -4 9 -12 7
-19 -4 -12 11 -30 117 -145 40 -45 51 -52 63 -42 20 16 19 28 -6 74 -17 32
-317 389 -421 501 -29 32 -39 43 -103 121 -203 247 -303 318 -418 300 -29 -5
-51 -1 -83 14 -42 21 -55 34 -116 111 -26 34 -139 147 -187 188 -13 11 -28 18
-34 14 -5 -3 -7 -2 -4 4 7 11 0 17 -137 125 -55 43 -109 86 -119 94 -37 30
-96 47 -130 37 -18 -5 -31 -15 -30 -21 2 -6 -4 -9 -12 -6 -8 4 -15 2 -15 -3 0
-5 -22 -32 -48 -61 -61 -66 -92 -69 -149 -15 -21 21 -42 37 -46 35 -5 -1 -6 2
-2 8 4 6 -21 49 -54 95 -34 46 -61 88 -61 94 0 10 -14 15 -33 12 -5 -1 -6 3
-2 9 6 10 -25 68 -50 93 -7 7 -20 27 -29 45 -23 45 -74 100 -107 118 -38 19
-72 18 -147 -6 -90 -28 -118 -26 -216 15 -15 6 -17 5 -11 -5 5 -9 4 -11 -4 -6
-6 4 -9 11 -6 16 3 4 -7 15 -21 24 -14 10 -49 38 -77 64 -29 26 -80 70 -112
99 -33 28 -91 78 -130 112 -38 33 -76 59 -83 56 -7 -3 -11 -1 -7 4 4 8 -57 65
-92 85 -7 4 -27 -9 -47 -29z m99 -35 c3 -5 1 -10 -4 -10 -6 0 -11 5 -11 10 0
6 2 10 4 10 3 0 8 -4 11 -10z m206 -167 c13 -16 12 -17 -3 -4 -17 13 -22 21
-14 21 2 0 10 -8 17 -17z m629 -355 c-13 -51 -25 -87 -58 -169 -17 -42 -28
-86 -26 -97 3 -11 1 -23 -4 -26 -6 -4 -8 3 -5 16 2 13 -9 -1 -26 -31 -17 -29
-28 -57 -25 -62 3 -5 -2 -6 -11 -3 -9 4 -36 47 -59 97 -24 49 -46 84 -48 76
-3 -8 -5 0 -5 16 0 17 -8 51 -18 77 -29 79 -14 91 138 108 116 14 138 18 145
25 10 9 10 5 2 -27z m331 -371 c-10 -9 -11 -8 -5 6 3 10 9 15 12 12 3 -3 0
-11 -7 -18z m-1384 -379 c-3 -8 -6 -5 -6 6 -1 11 2 17 5 13 3 -3 4 -12 1 -19z
m493 -72 c0 -12 -5 -7 -19 24 -11 24 -11 24 3 6 9 -11 16 -24 16 -30z m2235
-136 c-3 -5 -12 -10 -18 -10 -7 0 -6 4 3 10 19 12 23 12 15 0z m-1098 -112
c-3 -8 -6 -5 -6 6 -1 11 2 17 5 13 3 -3 4 -12 1 -19z m1173 -28 c0 -5 -5 -10
-11 -10 -5 0 -7 5 -4 10 3 6 8 10 11 10 2 0 4 -4 4 -10z m108 -65 c-3 -3 -9 2
-12 12 -6 14 -5 15 5 6 7 -7 10 -15 7 -18z m-24 -41 c3 -8 2 -12 -4 -9 -6 3
-10 10 -10 16 0 14 7 11 14 -7z m-1101 -79 c-3 -9 -8 -14 -10 -11 -3 3 -2 9 2
15 9 16 15 13 8 -4z m87 -69 c0 -2 -7 -7 -16 -10 -8 -3 -12 -2 -9 4 6 10 25
14 25 6z m1439 -270 c-2 -2 -13 8 -23 22 l-19 27 24 -22 c12 -12 21 -24 18
-27z m-34 5 c-6 -5 -25 10 -25 20 0 5 6 4 14 -3 8 -7 12 -15 11 -17z m139
-156 c-4 -8 -11 -15 -16 -15 -6 0 -5 6 2 15 7 8 14 15 16 15 2 0 1 -7 -2 -15z"/>
<path d="M8186 12128 c-21 -8 -25 -13 -15 -20 10 -6 6 -7 -11 -3 -21 5 -35 -3
-75 -39 -28 -25 -53 -46 -58 -46 -10 0 -100 -60 -161 -107 -69 -54 -72 -69
-33 -164 18 -44 36 -76 41 -72 4 4 4 1 1 -8 -3 -8 21 -82 53 -165 32 -82 71
-182 87 -223 l28 -74 14 27 c8 15 12 34 9 42 -3 8 -2 13 3 10 4 -3 15 33 25
79 22 113 49 184 89 229 l32 37 49 -100 c27 -55 53 -98 57 -95 5 3 6 -1 3 -9
-3 -8 8 -41 25 -73 l30 -59 1 136 c0 110 3 139 15 149 13 11 15 10 11 -1 -6
-18 109 -103 125 -93 8 4 9 3 5 -5 -4 -6 0 -14 11 -18 10 -4 24 -13 32 -20 7
-8 22 -11 35 -8 14 4 17 3 8 -3 -10 -7 -2 -16 32 -36 26 -15 51 -24 58 -20 6
4 8 3 5 -3 -6 -9 110 -72 238 -129 218 -97 411 -187 422 -196 16 -13 16 -10 2
30 -6 18 -15 29 -20 26 -5 -3 -6 2 -3 10 7 17 -93 169 -106 161 -5 -3 -12 0
-16 6 -5 8 -3 9 6 4 7 -4 11 -4 8 1 -2 5 -20 43 -41 84 -27 54 -37 87 -37 121
0 43 -3 48 -32 62 -18 8 -49 18 -68 22 -47 10 -132 67 -176 119 -39 45 -66 92
-100 174 -61 146 -159 209 -282 181 -30 -7 -40 -4 -66 18 -75 64 -183 89 -260
61z m-284 -433 c3 -13 1 -22 -3 -19 -9 5 -13 44 -5 44 2 0 6 -11 8 -25z m1245
-187 c-3 -8 -6 -5 -6 6 -1 11 2 17 5 13 3 -3 4 -12 1 -19z m-340 -163 c0 -8
-4 -12 -9 -9 -5 3 -6 10 -3 15 9 13 12 11 12 -6z m53 -9 c0 -2 -7 -7 -16 -10
-8 -3 -12 -2 -9 4 6 10 25 14 25 6z m465 -216 c3 -5 1 -10 -4 -10 -6 0 -11 5
-11 10 0 6 2 10 4 10 3 0 8 -4 11 -10z"/>
<path d="M7358 9811 l-33 -30 2 -113 c1 -62 5 -211 9 -331 6 -217 6 -218 28
-210 23 8 65 9 110 2 l30 -4 2 80 c13 399 13 558 -1 586 -30 57 -96 66 -147
20z"/>
<path d="M8108 9810 l-30 -31 7 -327 c4 -180 8 -328 9 -329 1 -1 20 3 42 8 29
8 53 7 80 0 21 -6 39 -9 40 -8 1 1 5 149 9 329 l7 328 -30 30 c-42 42 -92 42
-134 0z"/>
<path d="M14874 9753 c-33 -6 -105 -73 -120 -110 -18 -41 -17 -101 1 -238 8
-60 20 -224 26 -363 13 -277 2 -613 -26 -796 -25 -168 -19 -233 28 -285 52
-57 164 -78 234 -44 44 20 90 90 99 148 3 23 -1 100 -10 171 -49 395 -48 858
0 1187 20 131 16 217 -13 255 -38 51 -152 90 -219 75z m31 -70 c4 -12 0 -22
-10 -28 -44 -27 -49 -35 -55 -86 -4 -46 -8 -54 -28 -57 -32 -5 -38 21 -19 82
16 50 45 87 77 99 24 9 28 8 35 -10z m91 -641 c16 -10 34 -48 34 -70 0 -11 -9
-31 -21 -46 -18 -23 -27 -26 -84 -26 -55 0 -66 3 -79 22 -9 12 -16 36 -16 53
0 17 7 41 16 53 13 19 24 22 77 22 34 0 67 -4 73 -8z m19 -322 c20 -39 19 -62
-6 -94 -18 -23 -28 -26 -80 -26 -72 0 -99 21 -99 77 0 58 21 73 101 73 66 0
69 -1 84 -30z m51 -645 c7 -18 -33 -91 -61 -109 -52 -34 -122 -26 -99 11 6 10
22 20 35 21 31 5 54 26 69 63 13 31 46 40 56 14z"/>
<path d="M5800 9695 c-136 -39 -246 -126 -304 -240 -56 -111 -56 -116 -56
-797 l0 -629 98 3 c68 2 97 7 98 16 1 6 2 170 3 362 l1 350 275 0 275 0 0
-365 0 -365 100 0 101 0 -3 653 c-3 609 -5 655 -22 702 -36 96 -110 190 -193
248 -96 67 -261 94 -373 62z m230 -207 c54 -23 104 -69 133 -123 20 -36 22
-58 25 -227 l4 -188 -276 0 -276 0 0 178 c0 165 2 180 24 227 39 83 111 136
211 159 34 7 107 -5 155 -26z"/>
<path d="M9559 9695 c-178 -48 -318 -203 -349 -382 -8 -48 -10 -204 -8 -499 4
-414 4 -431 26 -488 63 -168 189 -276 367 -313 238 -49 491 121 545 367 8 40
11 181 8 510 -4 445 -4 456 -26 509 -96 230 -340 358 -563 296z m220 -202 c59
-21 119 -77 147 -138 l24 -50 0 -450 c0 -416 -2 -453 -19 -491 -45 -98 -131
-156 -244 -162 -61 -4 -75 -1 -133 28 -45 22 -75 45 -95 73 -60 83 -59 71 -59
546 0 269 4 450 10 473 24 87 123 172 216 187 57 9 92 5 153 -16z"/>
<path d="M11443 9695 c-135 -38 -254 -136 -310 -255 -51 -107 -55 -161 -51
-625 4 -401 5 -423 26 -487 39 -115 135 -224 247 -278 77 -37 187 -54 269 -41
192 30 355 183 396 371 8 39 11 183 8 510 -3 447 -3 456 -26 510 -53 128 -159
233 -282 281 -72 27 -206 34 -277 14z m243 -213 c49 -25 95 -74 125 -132 l24
-45 0 -445 0 -445 -28 -57 c-53 -108 -153 -165 -271 -156 -100 8 -180 62 -229
153 -21 39 -22 51 -25 484 -3 489 -2 500 59 574 81 98 230 128 345 69z"/>
<path d="M16360 9704 c-90 -18 -192 -76 -262 -151 -53 -57 -78 -103 -105 -188
-17 -56 -18 -106 -18 -695 l0 -635 98 -3 97 -3 0 366 0 365 278 -2 277 -3 3
-362 2 -363 95 0 96 0 -3 658 -3 657 -23 58 c-51 127 -175 245 -295 283 -52
16 -190 27 -237 18z m207 -216 c58 -27 127 -106 144 -165 9 -32 14 -101 14
-208 l0 -160 -277 -3 -278 -2 0 168 c0 125 4 180 15 213 52 152 234 227 382
157z"/>
<path d="M3560 8861 l0 -831 268 0 c147 0 287 5 312 11 182 42 334 207 360
394 13 92 13 760 0 849 -25 169 -142 309 -315 377 -57 22 -74 23 -342 27
l-283 4 0 -831z m594 605 c55 -28 105 -80 133 -142 l24 -53 -3 -428 c-3 -420
-3 -429 -25 -469 -33 -62 -102 -118 -170 -138 -46 -14 -88 -16 -208 -14 l-150
3 -3 620 c-1 341 0 626 3 633 4 10 43 13 182 10 152 -3 184 -6 217 -22z"/>
<path d="M12960 8860 l0 -830 100 0 100 0 0 366 0 366 178 -4 c170 -3 179 -4
228 -30 59 -31 98 -73 128 -138 19 -41 21 -66 24 -302 l3 -258 95 0 95 0 -3
278 -3 277 -37 77 c-25 54 -54 94 -97 137 l-61 60 50 47 c66 62 106 124 130
202 18 57 20 93 20 323 l0 259 -94 0 -95 0 -3 -262 c-3 -297 -8 -317 -84 -391
-75 -72 -107 -81 -301 -85 l-173 -4 0 371 0 371 -100 0 -100 0 0 -830z"/>
<path d="M7384 9056 c-30 -13 -44 -33 -44 -62 0 -11 17 -14 78 -14 43 0 81 3
85 6 13 13 -24 62 -54 73 -18 6 -32 11 -33 11 -1 -1 -15 -7 -32 -14z"/>
<path d="M8153 9062 c-24 -4 -63 -46 -63 -68 0 -11 20 -14 85 -14 93 0 101 7
65 52 -20 26 -48 36 -87 30z"/>
<path d="M7039 8951 c-1 -6 -2 -17 -3 -23 -1 -8 -22 -15 -56 -18 -51 -5 -55
-7 -58 -32 -3 -27 -1 -28 40 -29 70 -2 73 -3 76 -26 4 -26 29 -38 49 -22 10 9
13 31 11 83 -3 69 -4 71 -30 74 -16 2 -29 -1 -29 -7z"/>
<path d="M7170 8880 l0 -29 81 -3 82 -3 3 -53 c1 -28 6 -57 9 -62 4 -6 -27
-10 -85 -10 l-91 0 3 -32 3 -31 690 -2 c647 -1 693 -2 733 -19 38 -17 45 -17
58 -4 22 22 7 44 -46 67 -42 18 -69 21 -204 21 l-155 0 5 53 c9 86 -3 80 162
75 116 -4 155 -9 185 -23 35 -18 38 -18 55 -2 23 24 8 45 -48 68 -42 17 -93
18 -742 18 l-698 1 0 -30z m914 -42 c3 -7 7 -37 10 -65 l5 -53 -303 0 -304 0
9 42 c6 23 7 48 4 56 -3 7 -3 18 1 23 3 5 130 9 290 9 219 0 286 -3 288 -12z"/>
<path d="M7038 8746 c-10 -23 -17 -26 -59 -26 -37 0 -51 -4 -58 -19 -15 -27 4
-39 63 -43 39 -2 50 -7 52 -22 4 -26 24 -37 46 -25 16 9 18 21 16 82 -3 66 -5
72 -25 75 -16 2 -26 -4 -35 -22z"/>
<path d="M7337 8616 c8 -38 39 -61 85 -61 43 0 78 30 78 66 0 16 -4 17 -31 7
-29 -10 -87 -7 -120 7 -13 5 -15 1 -12 -19z"/>
<path d="M8090 8625 c0 -23 54 -75 79 -75 35 0 69 22 82 52 14 35 8 43 -21 28
-23 -12 -91 -10 -122 4 -13 6 -18 4 -18 -9z"/>
<path d="M7340 8494 c1 -39 -11 -416 -16 -519 l-6 -131 30 -32 c50 -54 134
-39 162 29 9 21 11 58 6 122 -4 51 -7 192 -7 315 l0 223 -22 -8 c-28 -10 -107
-10 -129 1 -10 4 -18 4 -18 0z"/>
<path d="M8090 8398 c0 -58 -3 -206 -7 -331 l-6 -225 31 -31 c42 -42 101 -44
139 -3 l25 27 -7 330 c-4 182 -8 331 -9 333 -2 1 -17 -3 -35 -9 -32 -11 -81
-9 -113 6 -17 7 -18 -2 -18 -97z"/>
</g>
</svg>
